<?xml version="1.0" encoding="utf-8"?>
<!-- Svg Vector Icons : http://www.onlinewebfonts.com/icon -->
<!DOCTYPE svg PUBLIC "-//W3C//DTD SVG 1.1//EN" "http://www.w3.org/Graphics/SVG/1.1/DTD/svg11.dtd">
<svg version="1.1" xmlns="http://www.w3.org/2000/svg" xmlns:xlink="http://www.w3.org/1999/xlink" fill='#007CED' x="0px" y="0px" viewBox="0 0 1000 1000" enable-background="new 0 0 1000 1000" xml:space="preserve">
<metadata> Svg Vector Icons : http://www.onlinewebfonts.com/icon </metadata>
<g><path d="M140.8,345.5h456.7V356c0,113.6,0,227.3,0,340.9c0,38.4-20.5,58.7-59.1,58.8c-9.6,0-19.2,0-28.1,0c0,40.7,0.4,80.3-0.2,119.8c-0.4,24.5-21.6,44.9-45.9,45.8c-26.1,1-49.9-17.1-50.8-42.2c-1.5-40.5-0.4-81.1-0.4-122.5h-87.6c0,16.1,0,32.2,0,48.3c-0.1,23.7,0.5,47.5-0.4,71.2c-0.8,23.2-19.1,42.2-41.6,45c-23.9,3-46.2-10.8-53.3-33.4c-1.6-5-2.5-10.4-2.5-15.6c-0.2-33.7-0.2-67.4-0.1-101.2c0-4.6,0.8-9.3,1.3-15.2c-11.4,0-22.5,0.1-33.6,0c-33-0.2-54.4-21.6-54.4-54.7c-0.1-115.5,0-231,0-346.6L140.8,345.5L140.8,345.5z M597.7,311.8H140.4c4.2-79.1,49.2-128.2,115.9-163.1c-6.8-10.3-13.4-20.3-20-30.4c-4.8-7.3-9.7-14.5-14.5-21.8c-3.4-5.1-8.8-10.9-1.3-16.1c8.1-5.5,11.4,2.2,15,7.5c8.6,12.7,17,25.4,25.5,38.1c10.4,15.7,10.4,15.7,28.4,10.4c57.1-16.6,113.9-15.7,170.2,3.7c2,0.7,4.1,1.3,6.7,2.1c11.7-17.5,23.3-34.8,34.8-52.2c1.4-2.1,2.7-4.2,4.2-6.2c3.3-4.7,7.4-7.2,12.6-3.3c4.7,3.5,3.9,7.9,0.9,12.4c-10.1,15-20.1,30.1-30.1,45.2c-2.2,3.4-4.4,6.8-7,10.7C548.2,183.3,593.6,232.5,597.7,311.8L597.7,311.8L597.7,311.8z M491.4,222.9c0.1-13.2-10.9-24.5-24.2-24.6c-13.4-0.1-24.4,10.7-24.5,24.2c-0.1,13.7,10.4,24.3,24,24.4C480.4,246.9,491.3,236.3,491.4,222.9L491.4,222.9z M295.4,222.3c-0.2-13.5-11.2-24.3-24.6-24c-13.3,0.2-24.3,11.6-24.1,24.8c0.2,13.4,11.2,24,24.8,23.8C285.2,246.7,295.6,236,295.4,222.3L295.4,222.3z M107.8,498.7c0,35.6,0.3,71.1-0.1,106.7c-0.3,21.8-15.6,40.2-36.5,45.5c-20.4,5.2-42.8-3.3-53.3-21.8c-4.3-7.6-7.3-17-7.4-25.5c-0.6-69.9-0.5-139.7-0.2-209.6c0.1-27.5,21.8-48.7,48.9-48.7c27.1,0,48.4,20.8,48.7,48.7C108.1,428.8,107.9,463.7,107.8,498.7C107.8,498.7,107.8,498.7,107.8,498.7L107.8,498.7L107.8,498.7z"/><path d="M823.2,191.6c20-2,34.6-8.9,44.9-16.3c5.6-4,11.4-8.6,16.1-13.6c4.4-6.8,7.5-12.3,10.8-17.8c2.9-5,5.1-11.7,7.3-20.5c1.6-6.4,2.9-13,2.9-20.7v-5.9c-19.4,1.8-34.8,9-45.1,16.3c-5.9,4.2-11.2,8.6-16.3,13.6c-3.7,5.3-7.5,11-10.8,17.8c-2.9,5.9-5.4,12.1-7.3,20.9c-1.4,6.8-2.4,13-2.4,19.8L823.2,191.6L823.2,191.6z M658.6,333.9c-0.2,5.5,0.1,11.9,0.7,18c2.6,30.6,10.5,63,27.5,93.9c14,25.5,25.7,43.8,37.8,54.1c12.5,10.6,24.2,15.8,35.2,15.8c23.3,0,49.9-21.6,71.7-21.6c20.7,0,41.6,21.6,63.4,21.6c11.7,0,22.5-4.2,33-11.9c11.3-8.3,20.1-18.6,28.8-30.8c3.6-5,6.7-10.3,10.3-17.2c6-11.2,12.8-27.1,21.6-46.4v-2.9c-32.1-11.9-55.2-44.7-55.2-81c0-16.9,3.9-32,12.1-45.3c8.7-14.1,19.8-24,33-31.2c-19.8-26.8-50.8-42-75-42c-27.3,0-65.6,19.4-77,19.4c-11.7,0-36.5-17.8-69.3-17.8c-21.3,0-50.1,8.7-71.7,32.3c-14.4,15.7-21.1,39.6-25.1,67.5C659.1,317.4,658.9,325.1,658.6,333.9L658.6,333.9z"/><path d="M663.6,728.1h134.1V598l-134.1,15.6V728.1z M816.8,595.8v132.4H990V575.6L816.8,595.8z M663.6,861.7L797.7,877V747.2H663.6V861.7z M816.8,879.2L990,899V747.2H816.8V879.2z"/></g>
</svg>