<?xml version="1.0" encoding="UTF-8" standalone="no"?><!DOCTYPE svg PUBLIC "-//W3C//DTD SVG 1.1//EN" "http://www.w3.org/Graphics/SVG/1.1/DTD/svg11.dtd"><svg width="100%" height="100%" fill="#007CED" viewBox="0 0 24 24" version="1.1" xmlns="http://www.w3.org/2000/svg" xmlns:xlink="http://www.w3.org/1999/xlink" xml:space="preserve" xmlns:serif="http://www.serif.com/" style="fill-rule:evenodd;clip-rule:evenodd;stroke-linejoin:round;stroke-miterlimit:2;"><g id="Icon"><path d="M1.75,11c0,-0.414 0.336,-0.75 0.75,-0.75c0.414,0 0.75,0.336 0.75,0.75l0,8c-0,0.597 0.237,1.169 0.659,1.591c0.422,0.422 0.994,0.659 1.591,0.659l13,0c0.597,0 1.169,-0.237 1.591,-0.659c0.422,-0.422 0.659,-0.994 0.659,-1.591l0,-8c-0,-0.414 0.336,-0.75 0.75,-0.75c0.414,-0 0.75,0.336 0.75,0.75l0,8c0,0.995 -0.395,1.948 -1.098,2.652c-0.704,0.703 -1.657,1.098 -2.652,1.098l-13,-0c-0.995,0 -1.948,-0.395 -2.652,-1.098c-0.703,-0.704 -1.098,-1.657 -1.098,-2.652l0,-8Z"/><path d="M9.75,22c0,0.414 -0.336,0.75 -0.75,0.75c-0.414,0 -0.75,-0.336 -0.75,-0.75l0,-5c-0,-0.464 0.184,-0.909 0.513,-1.237c0.328,-0.329 0.773,-0.513 1.237,-0.513l4,0c0.464,-0 0.909,0.184 1.237,0.513c0.329,0.328 0.513,0.773 0.513,1.237l-0,5c0,0.414 -0.336,0.75 -0.75,0.75c-0.414,0 -0.75,-0.336 -0.75,-0.75l0,-5c0,-0.066 -0.026,-0.13 -0.073,-0.177c-0.047,-0.047 -0.111,-0.073 -0.177,-0.073l-4,-0c-0.066,-0 -0.13,0.026 -0.177,0.073c-0.047,0.047 -0.073,0.111 -0.073,0.177l-0,5Z"/><path d="M9.417,2l-0,7.168c-0,2.254 -1.828,4.082 -4.082,4.082l-0.003,0c-2.254,-0 -4.082,-1.828 -4.082,-4.082l0,-4.168c0,-2.071 1.679,-3.75 3.75,-3.75l3.667,0c0.414,0 0.75,0.336 0.75,0.75Zm-1.5,0.75l-2.917,-0c-1.243,0 -2.25,1.007 -2.25,2.25l0,4.168c0,1.426 1.156,2.582 2.582,2.582l0.003,0c1.426,-0 2.582,-1.156 2.582,-2.582l-0,-6.418Z"/><path d="M16.083,2l0,7.168c0,2.254 -1.827,4.082 -4.082,4.082l-0.002,0c-2.255,-0 -4.082,-1.828 -4.082,-4.082l-0,-7.168c-0,-0.414 0.335,-0.75 0.75,-0.75l6.666,0c0.415,0 0.75,0.336 0.75,0.75Zm-1.5,0.75l-5.166,0l-0,6.418c-0,1.426 1.156,2.582 2.582,2.582l0.002,0c1.426,-0 2.582,-1.156 2.582,-2.582l0,-6.418Z"/><path d="M22.75,5l-0,4.168c-0,2.254 -1.828,4.082 -4.082,4.082l-0.003,0c-2.254,-0 -4.082,-1.828 -4.082,-4.082l0,-7.168c0,-0.414 0.336,-0.75 0.75,-0.75l3.667,-0c2.071,0 3.75,1.679 3.75,3.75Zm-1.5,-0c-0,-1.243 -1.007,-2.25 -2.25,-2.25l-2.917,0l0,6.418c0,1.426 1.156,2.582 2.582,2.582l0.003,0c1.426,-0 2.582,-1.156 2.582,-2.582l-0,-4.168Z"/></g></svg>