        <svg xmlns="http://www.w3.org/2000/svg" xmlns:xlink="http://www.w3.org/1999/xlink" version="1.1" width="3168.5393258426966" 
        height="1297.7528089887642" viewBox="0 0 3168.5393258426966 1297.7528089887642">
			<rect fill="none" width="3168.5393258426966" height="1297.7528089887642"/>
			<g transform="scale(8.426966292134832) translate(10, 10)">
				<defs id="SvgjsDefs1015"></defs><g id="SvgjsG1016" featureKey="symbolFeature-0" transform="matrix(1.0416666666666667,0,0,1.0416666666666667,0,17.245948870976765)" fill="#007CED"><path xmlns="http://www.w3.org/2000/svg" d="M28.416,76.572c-1.024,0-2.048-0.393-2.832-1.172L1.172,50.844C0.42,50.092,0,49.068,0,48c0-1.068,0.42-2.088,1.176-2.848  l24.412-24.548c1.56-1.568,4.092-1.576,5.656,0.004c1.56,1.58,1.56,4.12-0.004,5.696L9.664,48l21.58,21.704  c1.56,1.571,1.56,4.116,0,5.688C30.464,76.18,29.432,76.572,28.416,76.572L28.416,76.572z"></path><path xmlns="http://www.w3.org/2000/svg" d="M67.588,76.572c-1.023,0-2.052-0.393-2.828-1.18c-1.568-1.572-1.568-4.117,0-5.697L86.344,48L64.76,26.304  c-1.568-1.58-1.568-4.12,0-5.696c1.568-1.58,4.088-1.576,5.656-0.008l24.412,24.552C95.58,45.9,96,46.928,96,48  c0,1.068-0.42,2.088-1.172,2.844L70.416,75.393C69.641,76.18,68.611,76.572,67.588,76.572L67.588,76.572z"></path><path xmlns="http://www.w3.org/2000/svg" d="M38.348,78c-0.476,0-0.964-0.084-1.436-0.264c-2.06-0.805-3.092-3.133-2.296-5.213l19.868-51.947  c0.795-2.076,3.107-3.096,5.168-2.304c2.06,0.796,3.088,3.124,2.296,5.204L42.072,75.424C41.476,77.016,39.952,78,38.348,78z"></path></g><g id="SvgjsG1017" featureKey="textGroupContainer" transform="matrix(1,0,0,1,355,0)" fill="#fff"><rect xmlns="http://www.w3.org/2000/svg" y="0" height="1" width="1" opacity="0"></rect><rect xmlns="http://www.w3.org/2000/svg" y="0" x="-235" width="3" height="134"></rect></g><g id="SvgjsG1018" featureKey="nameFeature-0" transform="matrix(0.8306306720794037,0,0,0.8306306720794037,136.3776951635434,32.96154372385941)" fill="#fff"><path d="M30.703 38.5937 l7.0313 0 l-13.594 -37.266 l-7.1094 0 l7.8906 22.266 z M1.9531 38.5937 l6.875 0 l8.125 -19.844 l-3.3594 -8.9063 z M49.9844 1.328000000000003 l-7.0313 0 l13.594 37.266 l7.1094 0 l-7.8906 -22.344 z M78.73400000000001 1.328000000000003 l-6.875 0 l-8.125 19.844 l3.3594 8.9063 z M114.813 27.344 c-0.98961 2.3959 -2.3438 4.375 -4.0625 5.9375 c-1.7709 1.6666 -3.8542 2.9688 -6.2501 3.9063 s-5.0781 1.4063 -8.0469 1.4063 l-8.6719 0 l0 -5.9375 l8.5938 0 c1.9791 0 3.776 -0.3125 5.3906 -0.9375 c1.5625 -0.625 2.9166 -1.5104 4.0625 -2.6563 s2.0313 -2.5 2.6563 -4.0625 s0.9375 -3.2813 0.9375 -5.1563 c0 -1.8229 -0.3125 -3.5156 -0.9375 -5.0781 c-0.625 -1.6146 -1.5104 -2.9427 -2.6563 -3.9844 c-1.0416 -1.0938 -2.3958 -1.9791 -4.0624 -2.6563 c-1.6666 -0.625 -3.4635 -0.9375 -5.3906 -0.9375 l-8.5938 0 l0 -5.9375 l8.6719 0 c2.7604 0 5.4166 0.49477 7.9688 1.4844 c2.3959 0.88539 4.5052 2.2135 6.3281 3.9844 c1.7709 1.6146 3.125 3.5938 4.0625 5.9375 c0.98961 2.3959 1.4844 4.8438 1.4844 7.3438 c0 2.7084 -0.49477 5.1563 -1.4844 7.3438 z M129.0938 1.4059999999999988 l27.813 0 l0 5.9375 l-27.813 0 l0 -5.9375 z M129.0938 32.6562 l27.734 0 l0 5.9375 l-27.734 0 l0 -5.9375 z M129.0938 16.875 l25.078 0 l0 5.8594 l-25.078 0 l0 -5.8594 z M170.0938 1.4059999999999988 l27.813 0 l0 5.9375 l-27.813 0 l0 -5.9375 z M170.0938 32.6562 l27.734 0 l0 5.9375 l-27.734 0 l0 -5.9375 z M170.0938 16.875 l25.078 0 l0 5.8594 l-25.078 0 l0 -5.8594 z M213.9844 1.328000000000003 l-7.0313 0 l13.594 37.266 l7.1094 0 l-7.8906 -22.344 z M242.734 1.328000000000003 l-6.875 0 l-8.125 19.844 l3.3594 8.9063 z"></path></g><g id="SvgjsG1019" featureKey="sloganFeature-0" transform="matrix(1.804931900818736,0,0,1.804931900818736,138,64.82018345970815)" fill="#fff"><path d="M7.84 5.720000000000001 l1.92 0 l-1.86 14.28 l-1.98 0 l-1 -7.16 l-0.94 7.16 l-1.98 0 l-2 -14.28 l1.92 0 l1.04 7.36 l0.96 -7.36 l1.92 0 l1.04 7.36 z M16.060499999999998 12.46 l-2.76 0 l0 5.64 l2.78 0 l0 1.9 l-4.68 0 l0 -14.28 l4.68 0 l0 1.9 l-2.78 0 l0 2.94 l2.76 0 l0 1.9 z M22.381 11.52 c0.44 0.44 0.72 1.04 0.72 1.7 l0 4.38 c0 1.32 -1.08 2.4 -2.4 2.4 l-2.96 0 l-0.02 -14.24 l2.64 0 c1.46 0.06 2.32 1.46 2.3 2.78 l-0.02 1.98 c0 0.36 -0.1 0.7 -0.26 1 z M20.701 18.08 c0.28 0 0.5 -0.22 0.5 -0.48 l-0.02 -4.38 c0 -0.28 -0.22 -0.48 -0.48 -0.48 l-1.06 0 l0 5.34 l1.06 0 z M19.621 7.66 l0 3.16 l0.8 0 c0.16 0 0.32 -0.14 0.32 -0.32 l0.02 -1.98 c0 -0.4 -0.2 -0.84 -0.48 -0.86 l-0.66 0 z M31.882 20.02 l-2.5 0 l0 -14.26 l2.5 0 c1.7 0 3.06 1.38 3.06 3.08 l0 8.1 c0 0.82 -0.32 1.6 -0.9 2.18 s-1.34 0.9 -2.16 0.9 z M31.282 7.68 l0 10.42 l0.6 0 c0.3 0 0.6 -0.12 0.82 -0.34 s0.34 -0.5 0.34 -0.82 l0 -8.1 c0 -0.64 -0.52 -1.16 -1.16 -1.16 l-0.6 0 z M41.24250000000001 12.46 l-2.76 0 l0 5.64 l2.78 0 l0 1.9 l-4.68 0 l0 -14.28 l4.68 0 l0 1.9 l-2.78 0 l0 2.94 l2.76 0 l0 1.9 z M46.883 20 l-1.98 0 l-2 -14.28 l1.92 0 l1.04 7.36 l0.96 -7.36 l1.92 0 z M54.90350000000001 12.46 l-2.76 0 l0 5.64 l2.78 0 l0 1.9 l-4.68 0 l0 -14.28 l4.68 0 l0 1.9 l-2.78 0 l0 2.94 l2.76 0 l0 1.9 z M58.44400000000001 18.12 l2.76 0 l0 1.88 l-4.64 0 l0 -14.36 l1.88 0 l0 12.48 z M65.54450000000001 20.02 c-1.5 0 -2.7 -1.22 -2.7 -2.7 l0 -8.98 c0 -1.48 1.2 -2.68 2.7 -2.68 c1.48 0 2.68 1.2 2.68 2.68 l0 8.98 c0 1.48 -1.2 2.7 -2.68 2.7 z M65.54450000000001 7.5600000000000005 c-0.44 0 -0.78 0.36 -0.78 0.78 l0 8.98 c0 0.44 0.34 0.78 0.78 0.78 c0.42 0 0.78 -0.34 0.78 -0.78 l0 -8.98 c0 -0.42 -0.36 -0.78 -0.78 -0.78 z M71.76500000000001 17 l0 2.98 l-1.9 0 l0 -14.26 l2.96 0 c1.32 0 2.38 1.08 2.38 2.4 l0 6.5 c0 1.32 -1.06 2.38 -2.38 2.38 l-1.06 0 z M71.76500000000001 7.619999999999999 l0 7.48 l1.06 0 c0.28 0 0.48 -0.2 0.48 -0.48 l0 -6.5 c0 -0.28 -0.2 -0.5 -0.48 -0.5 l-1.06 0 z M81.50550000000001 12.46 l-2.76 0 l0 5.64 l2.78 0 l0 1.9 l-4.68 0 l0 -14.28 l4.68 0 l0 1.9 l-2.78 0 l0 2.94 l2.76 0 l0 1.9 z M88.64600000000002 20.04 l-2.04 0 l-1.1 -3.02 l-0.44 0 l0 3.02 l-1.9 0 l0 -14.32 l2.98 0 c1.32 0 2.38 1.06 2.38 2.38 l0 6.54 c0 0.86 -0.44 1.6 -1.12 2.02 z M85.06600000000002 7.619999999999999 l0 7.5 l1.08 0 c0.26 0 0.48 -0.22 0.48 -0.48 l0 -6.54 c0 -0.26 -0.22 -0.48 -0.48 -0.48 l-1.08 0 z"></path></g>
			</g>
		</svg>
	