<?xml version="1.0" encoding="UTF-8"  standalone="no"?> <svg fill='#007CED' id="Capa_1" enable-background="new 0 0 511.984 511.984" height="512" viewBox="0 0 511.984 511.984" width="512" xmlns="http://www.w3.org/2000/svg"><g><path d="m501.749 66.803-56.569-56.569c-13.644-13.644-35.85-13.646-49.495 0-.001 0-.001.001-.001.001l-32.617 32.617-17.678-17.678c-6.61-6.61-15.4-10.251-24.749-10.251s-18.139 3.641-24.749 10.251l-134.35 134.351c-5.858 5.857-5.858 15.355 0 21.213 2.929 2.929 6.768 4.394 10.606 4.394s7.678-1.465 10.606-4.394l134.35-134.351c1.274-1.274 2.763-1.464 3.536-1.464s2.262.189 3.536 1.464l17.678 17.678-285.962 285.961c-1.506 1.506-2.674 3.314-3.426 5.307l-51.497 136.351c-2.083 5.515-.743 11.738 3.426 15.906 2.865 2.865 6.7 4.394 10.609 4.394 1.778 0 3.572-.316 5.297-.968l136.35-51.498c1.992-.752 3.801-1.92 5.307-3.426l297.366-297.365 42.428-42.428c13.644-13.646 13.644-35.85-.002-49.496zm-414.039 293.83 276.154-276.152 21.213 21.213-276.153 276.152zm-15.39 27.036 51.994 51.994-83.548 31.555zm79.03 36.604-21.213-21.213 276.153-276.153 21.214 21.214zm329.186-329.186-31.82 31.82-63.64-63.64 31.819-31.819c1.95-1.948 5.122-1.951 7.072-.001l56.567 56.568c1.952 1.95 1.952 5.123.002 7.072z"/></g></svg>