<?xml version="1.0" standalone="no"?>
<!DOCTYPE svg PUBLIC "-//W3C//DTD SVG 20010904//EN"
 "http://www.w3.org/TR/2001/REC-SVG-20010904/DTD/svg10.dtd">
<svg version="1.0" xmlns="http://www.w3.org/2000/svg"
 width="844.000000pt" height="844.000000pt" viewBox="0 0 844.000000 844.000000"
 preserveAspectRatio="xMidYMid meet">
<metadata>
Created by potrace 1.14, written by Peter Selinger 2001-2017
</metadata>
<g transform="translate(0.000000,844.000000) scale(0.100000,-0.100000)"
fill="#000000" stroke="none">
<path d="M5005 6836 c-92 -35 -173 -107 -207 -183 -11 -24 -71 -180 -135 -346
-63 -166 -149 -390 -190 -497 -41 -107 -84 -220 -94 -250 -11 -30 -24 -64 -29
-75 -5 -11 -50 -128 -100 -260 -50 -132 -95 -249 -100 -260 -4 -11 -23 -58
-40 -105 -59 -158 -360 -945 -369 -965 -5 -11 -14 -36 -21 -55 -7 -19 -16 -44
-21 -55 -5 -11 -20 -51 -35 -90 -14 -38 -36 -97 -49 -130 -13 -33 -71 -184
-129 -335 -164 -433 -173 -455 -373 -975 -87 -228 -88 -231 -88 -320 0 -78 4
-97 28 -145 65 -131 186 -206 327 -203 106 2 229 71 282 158 13 22 66 150 117
285 52 135 99 259 106 275 7 17 46 116 85 220 40 105 82 217 95 250 13 33 83
215 155 405 72 190 146 383 165 430 18 47 54 141 80 210 26 69 52 139 59 155
7 17 18 44 24 60 10 29 58 154 107 280 13 33 132 346 265 695 133 349 248 649
255 665 7 17 22 55 33 85 26 71 53 142 147 385 112 287 122 334 99 440 -20 92
-102 191 -194 234 -44 21 -72 26 -140 27 -47 1 -98 -3 -115 -10z"/>
<path d="M2410 6715 c-100 -26 23 93 -1954 -1895 -211 -212 -392 -401 -403
-420 -65 -110 -63 -267 4 -368 22 -31 1657 -1686 2138 -2164 123 -121 187
-153 305 -152 104 1 174 30 245 102 73 73 98 138 98 247 1 158 30 122 -706
861 -353 355 -787 791 -964 969 l-321 323 526 531 c290 292 727 732 972 978
417 419 447 452 469 508 106 276 -130 554 -409 480z"/>
<path d="M5844 6715 c-68 -21 -106 -45 -160 -101 -124 -126 -130 -335 -15
-465 44 -50 718 -730 1434 -1447 l481 -483 -331 -332 c-1026 -1027 -1588
-1597 -1610 -1632 -85 -131 -71 -308 33 -424 51 -56 141 -106 211 -117 70 -10
172 12 230 50 44 29 675 657 1869 1861 441 445 439 442 439 590 0 96 -10 133
-56 200 -45 66 -2193 2224 -2249 2260 -77 49 -191 65 -276 40z"/>
</g>
</svg>
